<svg xmlns="http://www.w3.org/2000/svg" width="64" height="64" viewBox="0 0 128 128">
  <title>CareerOS - Career operating system</title>
  <desc>A luminous ivory core connects an orange network inside distinct blue, violet, orange and rose orbits with flat glowing dots and colored borders.</desc>
  <defs>
    <radialGradient id="tile" cx=".38" cy=".32" r=".8">
      <stop stop-color="#001E26"/>
      <stop offset="1" stop-color="#000F13"/>
    </radialGradient>
    <radialGradient id="core-glow">
      <stop stop-color="#EEE8D5" stop-opacity=".82"/>
      <stop offset=".42" stop-color="#EEE8D5" stop-opacity=".25"/>
      <stop offset=".7" stop-color="#F34B00" stop-opacity=".14"/>
      <stop offset="1" stop-color="#F34B00" stop-opacity="0"/>
    </radialGradient>
  </defs>
  <rect x="1" y="1" width="126" height="126" rx="32" fill="url(#tile)" stroke="#586E75" stroke-opacity=".3"/>
  <g fill="none" stroke-width="7" stroke-opacity=".13">
    <ellipse cx="64" cy="64" rx="48" ry="34" transform="rotate(-32 64 64)" stroke="#268BD2"/>
    <ellipse cx="64" cy="64" rx="49" ry="27" transform="rotate(42 64 64)" stroke="#6C71C4"/>
    <ellipse cx="64" cy="64" rx="29" ry="49" transform="rotate(14 64 64)" stroke="#F34B00"/>
  </g>
  <g id="active-orbits" fill="none" stroke-width="2.5">
    <ellipse cx="64" cy="64" rx="48" ry="34" transform="rotate(-32 64 64)" stroke="#268BD2"/>
    <ellipse cx="64" cy="64" rx="49" ry="27" transform="rotate(42 64 64)" stroke="#6C71C4"/>
    <ellipse cx="64" cy="64" rx="29" ry="49" transform="rotate(14 64 64)" stroke="#F34B00"/>
  </g>
  <g id="quiet-orbit" fill="none" stroke="#E84A5F" stroke-width="1.8" stroke-opacity=".65">
    <ellipse cx="64" cy="64" rx="27" ry="16" transform="rotate(22 64 64)"/>
  </g>
  <g id="career-network" stroke="#F34B00" stroke-linecap="round" stroke-linejoin="round">
    <path d="M43 43 64 64 83 44M36 67 64 64 54 88M91 59 64 64 84 85M43 43 36 67 54 88M83 44 91 59 84 85" fill="none" stroke-width="2" stroke-opacity=".8"/>
    <g fill="#000F13" stroke-width="2.3">
      <circle cx="43" cy="43" r="2.5"/><circle cx="36" cy="67" r="2.5"/>
      <circle cx="54" cy="88" r="2.5"/><circle cx="83" cy="44" r="2.5"/>
      <circle cx="91" cy="59" r="2.5"/><circle cx="84" cy="85" r="2.5"/>
    </g>
  </g>
  <g id="orbit-dots" stroke-width="2.5">
    <g fill="#268BD2" stroke="#268BD2">
      <circle cx="107.7" cy="59.7" r="10" stroke="none" opacity=".15"/>
      <circle cx="107.7" cy="59.7" r="4.8" stroke="none"/>
      <circle cx="107.7" cy="59.7" r="8.2" fill="none"/>
    </g>
    <g fill="#6C71C4" stroke="#6C71C4">
      <circle cx="27.6" cy="31.2" r="10" stroke="none" opacity=".15"/>
      <circle cx="27.6" cy="31.2" r="4.8" stroke="none"/>
      <circle cx="27.6" cy="31.2" r="8.2" fill="none"/>
    </g>
    <g fill="#F34B00" stroke="#F34B00">
      <circle cx="62.5" cy="111.1" r="10" stroke="none" opacity=".15"/>
      <circle cx="62.5" cy="111.1" r="4.8" stroke="none"/>
      <circle cx="62.5" cy="111.1" r="8.2" fill="none"/>
    </g>
    <g fill="#E84A5F" stroke="#E84A5F">
      <circle cx="89" cy="74.1" r="7" stroke="none" opacity=".15"/>
      <circle cx="89" cy="74.1" r="3.2" stroke="none"/>
      <circle cx="89" cy="74.1" r="5.6" fill="none" stroke-width="2"/>
    </g>
  </g>
  <circle cx="64" cy="64" r="24" fill="url(#core-glow)"/>
  <circle id="career-core" cx="64" cy="64" r="9" fill="#EEE8D5"/>
</svg>
